<svg xmlns="http://www.w3.org/2000/svg" xmlns:xlink="http://www.w3.org/1999/xlink" width="500" zoomAndPan="magnify" viewBox="0 0 375 374.999991" height="500" preserveAspectRatio="xMidYMid meet" version="1.0"><defs><g/><clipPath id="ca8e0dd243"><path d="M 65.859375 70.175781 L 282.328125 70.175781 L 282.328125 286.644531 L 65.859375 286.644531 Z M 65.859375 70.175781 " clip-rule="nonzero"/></clipPath><clipPath id="dd34227013"><path d="M 174.09375 70.175781 C 114.320312 70.175781 65.859375 118.632812 65.859375 178.410156 C 65.859375 238.1875 114.320312 286.644531 174.09375 286.644531 C 233.871094 286.644531 282.328125 238.1875 282.328125 178.410156 C 282.328125 118.632812 233.871094 70.175781 174.09375 70.175781 Z M 174.09375 70.175781 " clip-rule="nonzero"/></clipPath><clipPath id="9e527eea38"><path d="M 116 128.5 L 229.550781 128.5 L 229.550781 244.75 L 116 244.75 Z M 116 128.5 " clip-rule="nonzero"/></clipPath><clipPath id="2f258bcdc2"><path d="M 124 178 L 190 178 L 190 244.75 L 124 244.75 Z M 124 178 " clip-rule="nonzero"/></clipPath><clipPath id="5c63fd0ce1"><path d="M 252 201 L 276 201 L 276 228 L 252 228 Z M 252 201 " clip-rule="nonzero"/></clipPath><clipPath id="997602a64a"><path d="M 227.738281 223.433594 L 247.519531 180.523438 L 281.574219 196.222656 L 261.796875 239.132812 Z M 227.738281 223.433594 " clip-rule="nonzero"/></clipPath><clipPath id="2d83b96d58"><path d="M 227.738281 223.433594 L 247.519531 180.523438 L 281.574219 196.222656 L 261.796875 239.132812 Z M 227.738281 223.433594 " clip-rule="nonzero"/></clipPath><clipPath id="c9d32f67d7"><path d="M 247.097656 220.730469 L 258.761719 195.421875 L 277.921875 204.253906 L 266.253906 229.5625 Z M 247.097656 220.730469 " clip-rule="nonzero"/></clipPath><clipPath id="eee0b42ca0"><path d="M 240 221 L 253 221 L 253 230 L 240 230 Z M 240 221 " clip-rule="nonzero"/></clipPath><clipPath id="8a6fd4b4cf"><path d="M 227.738281 223.433594 L 247.519531 180.523438 L 281.574219 196.222656 L 261.796875 239.132812 Z M 227.738281 223.433594 " clip-rule="nonzero"/></clipPath><clipPath id="f0c3751c18"><path d="M 227.738281 223.433594 L 247.519531 180.523438 L 281.574219 196.222656 L 261.796875 239.132812 Z M 227.738281 223.433594 " clip-rule="nonzero"/></clipPath><clipPath id="5a5b783269"><path d="M 234 207 L 249 207 L 249 217 L 234 217 Z M 234 207 " clip-rule="nonzero"/></clipPath><clipPath id="1a42ce70fe"><path d="M 227.738281 223.433594 L 247.519531 180.523438 L 281.574219 196.222656 L 261.796875 239.132812 Z M 227.738281 223.433594 " clip-rule="nonzero"/></clipPath><clipPath id="fa66e1d5ea"><path d="M 227.738281 223.433594 L 247.519531 180.523438 L 281.574219 196.222656 L 261.796875 239.132812 Z M 227.738281 223.433594 " clip-rule="nonzero"/></clipPath><clipPath id="01010b12cd"><path d="M 241 193 L 253 193 L 253 205 L 241 205 Z M 241 193 " clip-rule="nonzero"/></clipPath><clipPath id="51bc614089"><path d="M 227.738281 223.433594 L 247.519531 180.523438 L 281.574219 196.222656 L 261.796875 239.132812 Z M 227.738281 223.433594 " clip-rule="nonzero"/></clipPath><clipPath id="5611dcb778"><path d="M 227.738281 223.433594 L 247.519531 180.523438 L 281.574219 196.222656 L 261.796875 239.132812 Z M 227.738281 223.433594 " clip-rule="nonzero"/></clipPath><clipPath id="35080c3a8d"><path d="M 255 186 L 266 186 L 266 200 L 255 200 Z M 255 186 " clip-rule="nonzero"/></clipPath><clipPath id="bd8150a6ea"><path d="M 227.738281 223.433594 L 247.519531 180.523438 L 281.574219 196.222656 L 261.796875 239.132812 Z M 227.738281 223.433594 " clip-rule="nonzero"/></clipPath><clipPath id="8bd215f605"><path d="M 227.738281 223.433594 L 247.519531 180.523438 L 281.574219 196.222656 L 261.796875 239.132812 Z M 227.738281 223.433594 " clip-rule="nonzero"/></clipPath></defs><g clip-path="url(#ca8e0dd243)"><g clip-path="url(#dd34227013)"><path stroke-linecap="butt" transform="matrix(0.75, 0, 0, 0.75, 65.861191, 70.176463)" fill="none" stroke-linejoin="miter" d="M 144.310088 -0.000909522 C 64.612166 -0.000909522 -0.00242183 64.60847 -0.00242183 144.3116 C -0.00242183 224.01473 64.612166 288.624109 144.310088 288.624109 C 224.013218 288.624109 288.622597 224.01473 288.622597 144.3116 C 288.622597 64.60847 224.013218 -0.000909522 144.310088 -0.000909522 Z M 144.310088 -0.000909522 " stroke="#ffffff" stroke-width="6" stroke-opacity="1" stroke-miterlimit="4"/></g></g><g clip-path="url(#9e527eea38)"><path fill="#ffffff" d="M 228.175781 244.605469 C 227.617188 244.605469 227.101562 244.246094 226.925781 243.6875 C 223.5625 232.933594 217.003906 216.605469 204.824219 199.84375 C 203.96875 198.867188 193.535156 186.992188 190.59375 182.09375 C 187.476562 176.902344 184.941406 171.695312 185.449219 160.53125 C 185.914062 150.265625 183.808594 142.902344 179.003906 138.011719 C 174.449219 133.371094 167.425781 131.15625 158.125 131.40625 C 154.515625 131.507812 151.085938 132.742188 148.464844 134.886719 C 148.125 135.164062 147.808594 135.449219 147.523438 135.734375 C 147.460938 135.796875 147.394531 135.851562 147.324219 135.898438 C 147.136719 136.019531 142.785156 138.914062 138.808594 140.910156 C 138.167969 141.304688 133.203125 144.214844 126.75 144.097656 C 126.039062 144.085938 125.34375 143.960938 124.695312 143.726562 C 122.925781 143.101562 121.378906 143.242188 120.332031 144.125 C 119.195312 145.078125 118.746094 146.785156 119.097656 148.800781 C 119.144531 149.070312 119.140625 149.347656 119.082031 149.609375 C 118.910156 150.375 118.210938 154.425781 121.105469 158.835938 C 124.523438 164.042969 131.492188 167.699219 141.816406 169.703125 C 142.414062 169.761719 145.699219 170.1875 147.757812 172.578125 C 148.996094 174.015625 149.546875 175.839844 149.390625 177.996094 L 149.390625 189.351562 C 149.390625 190.074219 148.804688 190.664062 148.078125 190.664062 C 147.355469 190.664062 146.765625 190.074219 146.765625 189.351562 L 146.765625 177.945312 C 146.765625 177.910156 146.765625 177.878906 146.769531 177.847656 C 146.882812 176.367188 146.554688 175.207031 145.769531 174.292969 C 144.273438 172.554688 141.5625 172.316406 141.539062 172.3125 C 141.484375 172.308594 141.433594 172.300781 141.382812 172.292969 C 130.300781 170.152344 122.742188 166.109375 118.90625 160.277344 C 115.5625 155.167969 116.257812 150.335938 116.5 149.152344 C 116.019531 146.234375 116.796875 143.675781 118.644531 142.117188 C 120.40625 140.632812 122.933594 140.316406 125.574219 141.253906 C 125.960938 141.390625 126.375 141.464844 126.800781 141.472656 C 132.757812 141.589844 137.417969 138.6875 137.464844 138.65625 C 137.503906 138.632812 137.542969 138.613281 137.582031 138.589844 C 141.097656 136.832031 145.078125 134.238281 145.765625 133.78125 C 146.085938 133.46875 146.433594 133.15625 146.804688 132.851562 C 149.875 130.339844 153.871094 128.894531 158.058594 128.78125 C 168.117188 128.503906 175.792969 130.992188 180.882812 136.171875 C 186.222656 141.609375 188.574219 149.617188 188.074219 160.652344 C 187.597656 171.101562 189.851562 175.75 192.84375 180.742188 C 195.726562 185.542969 206.726562 198.027344 206.835938 198.152344 C 206.863281 198.183594 206.886719 198.214844 206.914062 198.25 C 219.324219 215.316406 226.007812 231.953125 229.429688 242.902344 C 229.644531 243.597656 229.261719 244.332031 228.570312 244.546875 C 228.4375 244.589844 228.304688 244.605469 228.175781 244.605469 Z M 169.421875 172.664062 C 171.503906 172.558594 175.347656 172.070312 177.707031 170.011719 C 182.121094 166.148438 184.691406 151.585938 182.003906 145.671875 C 181.703125 145.007812 180.921875 144.71875 180.265625 145.019531 C 179.605469 145.320312 179.3125 146.097656 179.613281 146.757812 C 181.8125 151.597656 179.539062 164.921875 175.976562 168.035156 C 173.226562 170.441406 165.726562 170.644531 161.925781 169.042969 C 160.660156 168.511719 159.605469 167.8125 158.789062 166.964844 C 155.691406 163.753906 156.203125 158.617188 157.179688 154.875 C 158.605469 149.398438 161.300781 144.117188 164.96875 139.605469 C 165.425781 139.042969 165.34375 138.214844 164.777344 137.757812 C 164.214844 137.300781 163.390625 137.386719 162.933594 137.949219 C 159.03125 142.753906 156.160156 148.375 154.636719 154.21875 C 152.996094 160.519531 153.777344 165.558594 156.898438 168.789062 C 157.964844 169.894531 159.3125 170.796875 160.90625 171.464844 C 162.785156 172.253906 165.421875 172.699219 168.152344 172.699219 C 168.574219 172.695312 169 172.6875 169.421875 172.664062 Z M 154.21875 142.074219 C 154.730469 141.5625 154.730469 140.730469 154.21875 140.21875 C 153.707031 139.707031 152.875 139.707031 152.363281 140.21875 C 151.324219 141.253906 150.273438 141.765625 149.234375 141.730469 C 147.601562 141.679688 146.382812 140.324219 146.347656 140.285156 C 145.875 139.742188 145.050781 139.679688 144.503906 140.148438 C 143.953125 140.621094 143.890625 141.449219 144.363281 142 C 144.441406 142.09375 146.316406 144.246094 149.117188 144.351562 C 149.195312 144.355469 149.265625 144.359375 149.339844 144.359375 C 151.0625 144.359375 152.699219 143.589844 154.21875 142.074219 Z M 154.21875 142.074219 " fill-opacity="1" fill-rule="nonzero"/></g><g clip-path="url(#2f258bcdc2)"><path fill="#ffffff" d="M 148.59375 244.605469 C 148.449219 244.605469 148.308594 244.582031 148.164062 244.535156 C 147.476562 244.292969 147.117188 243.546875 147.355469 242.863281 C 147.996094 241.023438 148.472656 239.132812 148.769531 237.242188 C 149.007812 235.734375 148.53125 232.34375 147.902344 231.089844 C 146.617188 228.523438 144.472656 227.191406 142.539062 226.226562 C 140.550781 225.230469 136.160156 224.875 132.710938 224.875 C 131.648438 224.875 129.722656 224.351562 128.753906 220.84375 C 128.660156 220.503906 128.460938 220.03125 128.058594 219.707031 C 125.972656 218.050781 125.132812 213.800781 124.988281 212.964844 C 124.011719 209.746094 127.753906 207.402344 130.199219 206.492188 C 132.90625 205.078125 134.140625 200.3125 134.386719 198.585938 C 134.390625 198.546875 134.398438 198.507812 134.40625 198.46875 C 135.210938 195.058594 137.90625 192.246094 141.277344 191.300781 C 142.976562 190.824219 144.515625 190.894531 146.003906 190.960938 C 146.523438 190.984375 147.054688 191.011719 147.585938 191.011719 C 149.367188 191.011719 151.667969 190.359375 152.417969 189.152344 C 152.492188 189.035156 157.914062 180.28125 157.914062 180.28125 C 158.382812 179.523438 159.15625 179.023438 160.039062 178.90625 C 160.917969 178.789062 161.796875 179.070312 162.445312 179.675781 C 164.535156 181.625 167.957031 186.386719 167.414062 196.394531 C 167.371094 197.210938 167.71875 198 168.371094 198.554688 C 182.058594 210.234375 187.644531 231.453125 189.757812 243.058594 C 189.882812 243.773438 189.414062 244.453125 188.699219 244.582031 C 187.988281 244.714844 187.304688 244.238281 187.175781 243.527344 C 185.128906 232.265625 179.738281 211.703125 166.671875 200.554688 C 165.390625 199.460938 164.707031 197.898438 164.796875 196.257812 C 164.960938 193.167969 164.894531 185.554688 160.65625 181.597656 C 160.5625 181.507812 160.457031 181.503906 160.386719 181.511719 C 160.316406 181.519531 160.214844 181.554688 160.148438 181.664062 C 160.148438 181.664062 154.726562 190.417969 154.652344 190.539062 C 153.132812 192.988281 149.5 193.636719 147.589844 193.636719 C 147 193.636719 146.433594 193.609375 145.890625 193.585938 C 144.492188 193.523438 143.285156 193.464844 141.992188 193.832031 C 139.542969 194.515625 137.582031 196.554688 136.980469 199.023438 C 136.855469 199.820312 135.679688 206.695312 131.320312 208.871094 C 131.273438 208.894531 131.226562 208.914062 131.179688 208.933594 C 129.847656 209.421875 127.078125 210.933594 127.511719 212.242188 C 127.535156 212.308594 127.550781 212.375 127.5625 212.441406 C 127.847656 214.128906 128.695312 216.863281 129.695312 217.65625 C 130.453125 218.261719 131.003906 219.121094 131.285156 220.152344 C 131.566406 221.167969 132.089844 222.257812 132.714844 222.257812 C 135.042969 222.257812 140.777344 222.414062 143.714844 223.882812 C 145.898438 224.976562 148.613281 226.648438 150.25 229.921875 C 151.207031 231.835938 151.664062 235.773438 151.367188 237.65625 C 151.042969 239.703125 150.53125 241.746094 149.839844 243.730469 C 149.644531 244.269531 149.140625 244.605469 148.59375 244.605469 Z M 146.28125 204.90625 C 146.792969 204.394531 146.792969 203.5625 146.28125 203.050781 C 145.769531 202.539062 144.9375 202.539062 144.425781 203.050781 C 143.636719 203.839844 142.839844 204.222656 142.074219 204.207031 C 140.855469 204.171875 139.929688 203.148438 139.898438 203.117188 C 139.425781 202.574219 138.601562 202.511719 138.054688 202.980469 C 137.503906 203.453125 137.441406 204.28125 137.914062 204.832031 C 138.082031 205.027344 139.613281 206.742188 141.953125 206.828125 C 142.019531 206.832031 142.082031 206.832031 142.144531 206.832031 C 143.613281 206.835938 145.003906 206.1875 146.28125 204.90625 Z M 146.28125 204.90625 " fill-opacity="1" fill-rule="nonzero"/></g><g fill="#ffffff" fill-opacity="1"><g transform="translate(82.857907, 223.461042)"><g><path d="M 12.78125 -0.96875 C 13.320312 0 13.582031 0.957031 13.5625 1.90625 C 13.539062 2.863281 13.257812 3.757812 12.71875 4.59375 C 12.1875 5.425781 11.414062 6.125 10.40625 6.6875 C 9.394531 7.257812 8.390625 7.554688 7.390625 7.578125 C 6.398438 7.597656 5.492188 7.363281 4.671875 6.875 C 3.847656 6.394531 3.164062 5.671875 2.625 4.703125 L 0.796875 1.421875 C 0.628906 1.128906 0.582031 0.828125 0.65625 0.515625 C 0.726562 0.210938 0.890625 -0.0078125 1.140625 -0.15625 L 9.4375 -4.78125 C 9.6875 -4.925781 9.957031 -4.945312 10.25 -4.84375 C 10.550781 -4.738281 10.785156 -4.539062 10.953125 -4.25 Z M 4.203125 3.8125 C 4.535156 4.40625 4.972656 4.847656 5.515625 5.140625 C 6.066406 5.429688 6.671875 5.554688 7.328125 5.515625 C 7.992188 5.472656 8.679688 5.253906 9.390625 4.859375 C 10.085938 4.472656 10.628906 4.003906 11.015625 3.453125 C 11.410156 2.910156 11.625 2.332031 11.65625 1.71875 C 11.695312 1.101562 11.550781 0.5 11.21875 -0.09375 L 9.8125 -2.609375 L 2.796875 1.296875 Z M 4.203125 3.8125 "/></g></g></g><g fill="#ffffff" fill-opacity="1"><g transform="translate(90.946727, 237.361603)"><g><path d="M 12.265625 5.921875 C 11.335938 6.671875 10.367188 7.140625 9.359375 7.328125 C 8.347656 7.515625 7.367188 7.421875 6.421875 7.046875 C 5.484375 6.671875 4.632812 6.019531 3.875 5.09375 C 3.132812 4.164062 2.671875 3.191406 2.484375 2.171875 C 2.304688 1.160156 2.410156 0.175781 2.796875 -0.78125 C 3.179688 -1.738281 3.835938 -2.59375 4.765625 -3.34375 C 5.703125 -4.09375 6.675781 -4.554688 7.6875 -4.734375 C 8.707031 -4.910156 9.695312 -4.804688 10.65625 -4.421875 C 11.613281 -4.046875 12.460938 -3.394531 13.203125 -2.46875 C 13.960938 -1.539062 14.425781 -0.570312 14.59375 0.4375 C 14.757812 1.445312 14.644531 2.425781 14.25 3.375 C 13.863281 4.320312 13.203125 5.171875 12.265625 5.921875 Z M 5.328125 3.90625 C 5.816406 4.5 6.367188 4.910156 6.984375 5.140625 C 7.609375 5.367188 8.257812 5.410156 8.9375 5.265625 C 9.625 5.117188 10.285156 4.785156 10.921875 4.265625 C 11.566406 3.742188 12.03125 3.164062 12.3125 2.53125 C 12.59375 1.894531 12.691406 1.242188 12.609375 0.578125 C 12.523438 -0.078125 12.238281 -0.703125 11.75 -1.296875 C 11.269531 -1.890625 10.710938 -2.300781 10.078125 -2.53125 C 9.441406 -2.769531 8.785156 -2.816406 8.109375 -2.671875 C 7.429688 -2.523438 6.769531 -2.191406 6.125 -1.671875 C 5.488281 -1.148438 5.023438 -0.570312 4.734375 0.0625 C 4.453125 0.695312 4.359375 1.347656 4.453125 2.015625 C 4.554688 2.679688 4.847656 3.3125 5.328125 3.90625 Z M 5.328125 3.90625 "/></g></g></g><g fill="#ffffff" fill-opacity="1"><g transform="translate(102.387506, 250.882556)"><g><path d="M 10.3125 5.234375 C 10.226562 5.328125 10.128906 5.410156 10.015625 5.484375 C 9.910156 5.554688 9.769531 5.601562 9.59375 5.625 C 9.039062 5.707031 8.457031 5.707031 7.84375 5.625 C 7.226562 5.539062 6.632812 5.375 6.0625 5.125 C 5.488281 4.882812 4.988281 4.578125 4.5625 4.203125 C 3.65625 3.421875 3.035156 2.539062 2.703125 1.5625 C 2.378906 0.59375 2.332031 -0.390625 2.5625 -1.390625 C 2.800781 -2.398438 3.332031 -3.351562 4.15625 -4.25 C 4.925781 -5.132812 5.785156 -5.75 6.734375 -6.09375 C 7.679688 -6.4375 8.648438 -6.5 9.640625 -6.28125 C 10.640625 -6.070312 11.585938 -5.582031 12.484375 -4.8125 C 13.085938 -4.289062 13.585938 -3.65625 13.984375 -2.90625 C 14.390625 -2.164062 14.601562 -1.410156 14.625 -0.640625 C 14.65625 -0.273438 14.566406 0 14.359375 0.1875 C 14.160156 0.375 13.9375 0.460938 13.6875 0.453125 C 13.4375 0.453125 13.203125 0.351562 12.984375 0.15625 C 12.773438 -0.0390625 12.664062 -0.332031 12.65625 -0.71875 C 12.632812 -1.28125 12.492188 -1.796875 12.234375 -2.265625 C 11.984375 -2.734375 11.671875 -3.128906 11.296875 -3.453125 C 10.722656 -3.953125 10.101562 -4.257812 9.4375 -4.375 C 8.769531 -4.488281 8.113281 -4.410156 7.46875 -4.140625 C 6.832031 -3.878906 6.242188 -3.4375 5.703125 -2.8125 C 5.171875 -2.1875 4.816406 -1.53125 4.640625 -0.84375 C 4.460938 -0.15625 4.46875 0.503906 4.65625 1.140625 C 4.851562 1.773438 5.234375 2.34375 5.796875 2.84375 C 6.203125 3.1875 6.679688 3.441406 7.234375 3.609375 C 7.796875 3.773438 8.34375 3.816406 8.875 3.734375 L 10.09375 2.328125 L 8.078125 0.578125 C 7.816406 0.359375 7.6875 0.128906 7.6875 -0.109375 C 7.6875 -0.359375 7.757812 -0.566406 7.90625 -0.734375 C 8.0625 -0.910156 8.257812 -1.015625 8.5 -1.046875 C 8.75 -1.085938 9.003906 -1 9.265625 -0.78125 L 12.015625 1.609375 C 12.335938 1.890625 12.492188 2.144531 12.484375 2.375 C 12.484375 2.613281 12.390625 2.84375 12.203125 3.0625 Z M 10.3125 5.234375 "/></g></g></g><g fill="#ffffff" fill-opacity="1"><g transform="translate(115.417018, 261.73787)"><g><path d="M 11.046875 3.40625 C 10.984375 3.507812 10.898438 3.609375 10.796875 3.703125 C 10.703125 3.796875 10.578125 3.863281 10.421875 3.90625 C 9.890625 4.082031 9.3125 4.179688 8.6875 4.203125 C 8.0625 4.222656 7.445312 4.160156 6.84375 4.015625 C 6.25 3.878906 5.707031 3.660156 5.21875 3.359375 C 4.1875 2.742188 3.425781 1.988281 2.9375 1.09375 C 2.445312 0.195312 2.234375 -0.765625 2.296875 -1.796875 C 2.359375 -2.835938 2.710938 -3.867188 3.359375 -4.890625 C 3.972656 -5.898438 4.71875 -6.648438 5.59375 -7.140625 C 6.476562 -7.640625 7.425781 -7.867188 8.4375 -7.828125 C 9.445312 -7.796875 10.457031 -7.472656 11.46875 -6.859375 C 12.15625 -6.453125 12.757812 -5.921875 13.28125 -5.265625 C 13.800781 -4.609375 14.144531 -3.894531 14.3125 -3.125 C 14.394531 -2.769531 14.351562 -2.484375 14.1875 -2.265625 C 14.03125 -2.046875 13.820312 -1.914062 13.5625 -1.875 C 13.3125 -1.84375 13.066406 -1.90625 12.828125 -2.0625 C 12.585938 -2.21875 12.425781 -2.484375 12.34375 -2.859375 C 12.226562 -3.421875 12.003906 -3.90625 11.671875 -4.3125 C 11.347656 -4.726562 10.972656 -5.0625 10.546875 -5.3125 C 9.898438 -5.707031 9.238281 -5.90625 8.5625 -5.90625 C 7.882812 -5.914062 7.25 -5.734375 6.65625 -5.359375 C 6.0625 -4.992188 5.550781 -4.457031 5.125 -3.75 C 4.71875 -3.039062 4.484375 -2.332031 4.421875 -1.625 C 4.367188 -0.925781 4.488281 -0.28125 4.78125 0.3125 C 5.082031 0.914062 5.550781 1.410156 6.1875 1.796875 C 6.644531 2.078125 7.160156 2.253906 7.734375 2.328125 C 8.316406 2.398438 8.863281 2.347656 9.375 2.171875 L 10.34375 0.578125 L 8.0625 -0.796875 C 7.769531 -0.972656 7.597656 -1.179688 7.546875 -1.421875 C 7.503906 -1.660156 7.539062 -1.875 7.65625 -2.0625 C 7.78125 -2.269531 7.960938 -2.410156 8.203125 -2.484375 C 8.441406 -2.566406 8.707031 -2.519531 9 -2.34375 L 12.109375 -0.46875 C 12.484375 -0.238281 12.6875 -0.0078125 12.71875 0.21875 C 12.75 0.457031 12.6875 0.703125 12.53125 0.953125 Z M 11.046875 3.40625 "/></g></g></g><g fill="#ffffff" fill-opacity="1"><g transform="translate(130.117983, 270.243658)"><g><path d="M 13.59375 -0.984375 C 13.164062 0.128906 12.554688 1.019531 11.765625 1.6875 C 10.972656 2.351562 10.078125 2.757812 9.078125 2.90625 C 8.078125 3.050781 7.019531 2.90625 5.90625 2.46875 C 4.789062 2.039062 3.898438 1.429688 3.234375 0.640625 C 2.578125 -0.140625 2.175781 -1.039062 2.03125 -2.0625 C 1.894531 -3.09375 2.039062 -4.164062 2.46875 -5.28125 C 2.894531 -6.394531 3.503906 -7.28125 4.296875 -7.9375 C 5.097656 -8.601562 6.003906 -9.003906 7.015625 -9.140625 C 8.035156 -9.285156 9.101562 -9.144531 10.21875 -8.71875 C 11.332031 -8.28125 12.210938 -7.671875 12.859375 -6.890625 C 13.503906 -6.109375 13.894531 -5.207031 14.03125 -4.1875 C 14.164062 -3.164062 14.019531 -2.097656 13.59375 -0.984375 Z M 6.578125 0.71875 C 7.296875 1 7.976562 1.082031 8.625 0.96875 C 9.28125 0.851562 9.863281 0.5625 10.375 0.09375 C 10.894531 -0.363281 11.300781 -0.976562 11.59375 -1.75 C 11.894531 -2.519531 12.007812 -3.25 11.9375 -3.9375 C 11.863281 -4.632812 11.628906 -5.242188 11.234375 -5.765625 C 10.835938 -6.296875 10.28125 -6.703125 9.5625 -6.984375 C 8.84375 -7.253906 8.144531 -7.332031 7.46875 -7.21875 C 6.800781 -7.101562 6.210938 -6.8125 5.703125 -6.34375 C 5.191406 -5.882812 4.785156 -5.269531 4.484375 -4.5 C 4.191406 -3.726562 4.078125 -2.992188 4.140625 -2.296875 C 4.210938 -1.609375 4.457031 -1 4.875 -0.46875 C 5.289062 0.0507812 5.859375 0.445312 6.578125 0.71875 Z M 6.578125 0.71875 "/></g></g></g><g fill="#ffffff" fill-opacity="1"><g transform="translate(146.75107, 276.218066)"><g><path d="M 0.671875 -2.671875 C 0.660156 -3.035156 0.796875 -3.289062 1.078125 -3.4375 C 1.367188 -3.59375 1.664062 -3.640625 1.96875 -3.578125 C 2.21875 -3.535156 2.421875 -3.4375 2.578125 -3.28125 C 2.742188 -3.132812 2.832031 -2.941406 2.84375 -2.703125 C 2.894531 -2.285156 3.078125 -1.9375 3.390625 -1.65625 C 3.710938 -1.375 4.09375 -1.144531 4.53125 -0.96875 C 4.976562 -0.800781 5.394531 -0.679688 5.78125 -0.609375 C 6.09375 -0.546875 6.4375 -0.5 6.8125 -0.46875 C 7.195312 -0.4375 7.570312 -0.445312 7.9375 -0.5 C 8.300781 -0.5625 8.609375 -0.679688 8.859375 -0.859375 C 9.117188 -1.046875 9.285156 -1.320312 9.359375 -1.6875 C 9.441406 -2.070312 9.34375 -2.382812 9.0625 -2.625 C 8.78125 -2.863281 8.398438 -3.070312 7.921875 -3.25 C 7.453125 -3.425781 6.953125 -3.59375 6.421875 -3.75 C 5.816406 -3.90625 5.21875 -4.09375 4.625 -4.3125 C 4.03125 -4.53125 3.5 -4.796875 3.03125 -5.109375 C 2.5625 -5.429688 2.210938 -5.832031 1.984375 -6.3125 C 1.765625 -6.789062 1.722656 -7.367188 1.859375 -8.046875 C 1.984375 -8.648438 2.242188 -9.144531 2.640625 -9.53125 C 3.046875 -9.914062 3.523438 -10.195312 4.078125 -10.375 C 4.640625 -10.550781 5.226562 -10.644531 5.84375 -10.65625 C 6.457031 -10.675781 7.046875 -10.628906 7.609375 -10.515625 C 8.222656 -10.390625 8.851562 -10.1875 9.5 -9.90625 C 10.15625 -9.632812 10.726562 -9.257812 11.21875 -8.78125 C 11.71875 -8.300781 12.039062 -7.703125 12.1875 -6.984375 C 12.207031 -6.628906 12.078125 -6.367188 11.796875 -6.203125 C 11.515625 -6.035156 11.222656 -5.984375 10.921875 -6.046875 C 10.722656 -6.078125 10.546875 -6.148438 10.390625 -6.265625 C 10.242188 -6.390625 10.148438 -6.535156 10.109375 -6.703125 C 10.035156 -7.109375 9.835938 -7.4375 9.515625 -7.6875 C 9.203125 -7.945312 8.832031 -8.144531 8.40625 -8.28125 C 7.988281 -8.425781 7.597656 -8.535156 7.234375 -8.609375 C 6.992188 -8.648438 6.703125 -8.679688 6.359375 -8.703125 C 6.023438 -8.722656 5.691406 -8.703125 5.359375 -8.640625 C 5.023438 -8.585938 4.726562 -8.476562 4.46875 -8.3125 C 4.21875 -8.144531 4.0625 -7.90625 4 -7.59375 C 3.925781 -7.207031 4.019531 -6.890625 4.28125 -6.640625 C 4.539062 -6.390625 4.910156 -6.175781 5.390625 -6 C 5.878906 -5.820312 6.410156 -5.65625 6.984375 -5.5 C 7.597656 -5.320312 8.203125 -5.128906 8.796875 -4.921875 C 9.390625 -4.722656 9.914062 -4.472656 10.375 -4.171875 C 10.84375 -3.878906 11.1875 -3.5 11.40625 -3.03125 C 11.625 -2.570312 11.660156 -1.988281 11.515625 -1.28125 C 11.367188 -0.550781 11.078125 0.00390625 10.640625 0.390625 C 10.203125 0.785156 9.679688 1.0625 9.078125 1.21875 C 8.472656 1.382812 7.847656 1.460938 7.203125 1.453125 C 6.566406 1.453125 5.96875 1.394531 5.40625 1.28125 C 4.945312 1.1875 4.445312 1.035156 3.90625 0.828125 C 3.375 0.628906 2.875 0.367188 2.40625 0.046875 C 1.9375 -0.273438 1.539062 -0.660156 1.21875 -1.109375 C 0.894531 -1.566406 0.710938 -2.085938 0.671875 -2.671875 Z M 0.671875 -2.671875 "/></g></g></g><g fill="#ffffff" fill-opacity="1"><g transform="translate(162.115608, 278.866692)"><g/></g></g><g fill="#ffffff" fill-opacity="1"><g transform="translate(170.911403, 279.5298)"><g><path d="M 9.015625 -12.109375 C 9.273438 -12.128906 9.523438 -12.0625 9.765625 -11.90625 C 10.003906 -11.757812 10.128906 -11.53125 10.140625 -11.21875 L 10.640625 -1.53125 C 10.648438 -1.207031 10.546875 -0.957031 10.328125 -0.78125 C 10.109375 -0.601562 9.867188 -0.503906 9.609375 -0.484375 C 9.335938 -0.472656 9.085938 -0.546875 8.859375 -0.703125 C 8.640625 -0.859375 8.523438 -1.097656 8.515625 -1.421875 L 8.3125 -5.1875 L 2.875 -4.90625 L 3.078125 -1.140625 C 3.085938 -0.796875 2.988281 -0.539062 2.78125 -0.375 C 2.570312 -0.207031 2.34375 -0.117188 2.09375 -0.109375 C 1.832031 -0.0976562 1.582031 -0.171875 1.34375 -0.328125 C 1.101562 -0.484375 0.976562 -0.71875 0.96875 -1.03125 L 0.46875 -10.71875 C 0.457031 -11.03125 0.550781 -11.269531 0.75 -11.4375 C 0.945312 -11.613281 1.179688 -11.710938 1.453125 -11.734375 C 1.722656 -11.742188 1.972656 -11.671875 2.203125 -11.515625 C 2.441406 -11.367188 2.566406 -11.140625 2.578125 -10.828125 L 2.796875 -6.65625 L 8.234375 -6.9375 L 8.015625 -11.109375 C 8.003906 -11.421875 8.097656 -11.660156 8.296875 -11.828125 C 8.503906 -12.003906 8.742188 -12.097656 9.015625 -12.109375 Z M 9.015625 -12.109375 "/></g></g></g><g fill="#ffffff" fill-opacity="1"><g transform="translate(187.371433, 278.328187)"><g><path d="M 8.90625 -3.796875 C 9.207031 -3.867188 9.46875 -3.820312 9.6875 -3.65625 C 9.90625 -3.5 10.039062 -3.3125 10.09375 -3.09375 C 10.144531 -2.875 10.109375 -2.65625 9.984375 -2.4375 C 9.859375 -2.226562 9.628906 -2.085938 9.296875 -2.015625 L 2.21875 -0.484375 C 1.851562 -0.398438 1.539062 -0.4375 1.28125 -0.59375 C 1.019531 -0.757812 0.859375 -0.988281 0.796875 -1.28125 L -1.203125 -10.546875 C -1.265625 -10.828125 -1.210938 -11.09375 -1.046875 -11.34375 C -0.878906 -11.601562 -0.613281 -11.773438 -0.25 -11.859375 L 6.828125 -13.390625 C 7.148438 -13.460938 7.40625 -13.425781 7.59375 -13.28125 C 7.789062 -13.144531 7.914062 -12.960938 7.96875 -12.734375 C 8.007812 -12.523438 7.96875 -12.304688 7.84375 -12.078125 C 7.71875 -11.859375 7.503906 -11.710938 7.203125 -11.640625 L 0.96875 -10.296875 L 1.65625 -7.171875 L 7.578125 -8.453125 C 7.878906 -8.515625 8.125 -8.46875 8.3125 -8.3125 C 8.507812 -8.164062 8.632812 -7.984375 8.6875 -7.765625 C 8.738281 -7.546875 8.703125 -7.328125 8.578125 -7.109375 C 8.460938 -6.898438 8.253906 -6.765625 7.953125 -6.703125 L 2.03125 -5.421875 L 2.671875 -2.453125 Z M 8.90625 -3.796875 "/></g></g></g><g fill="#ffffff" fill-opacity="1"><g transform="translate(202.663321, 274.714218)"><g><path d="M 1.1875 -13.1875 C 1.375 -13.257812 1.5625 -13.289062 1.75 -13.28125 C 1.9375 -13.269531 2.101562 -13.195312 2.25 -13.0625 L 10.78125 -5.546875 C 11.03125 -5.359375 11.15625 -5.15625 11.15625 -4.9375 C 11.164062 -4.726562 11.09375 -4.53125 10.9375 -4.34375 C 10.789062 -4.15625 10.613281 -4.019531 10.40625 -3.9375 C 10.25 -3.875 10.070312 -3.851562 9.875 -3.875 C 9.675781 -3.894531 9.5 -3.960938 9.34375 -4.078125 L 7.21875 -5.96875 L 1.75 -3.8125 L 1.5 -0.953125 C 1.5 -0.753906 1.425781 -0.582031 1.28125 -0.4375 C 1.144531 -0.300781 1 -0.203125 0.84375 -0.140625 C 0.65625 -0.0664062 0.441406 -0.046875 0.203125 -0.078125 C -0.0234375 -0.109375 -0.210938 -0.203125 -0.359375 -0.359375 C -0.515625 -0.515625 -0.585938 -0.71875 -0.578125 -0.96875 L 0.484375 -12.359375 C 0.515625 -12.585938 0.585938 -12.757812 0.703125 -12.875 C 0.816406 -13 0.976562 -13.101562 1.1875 -13.1875 Z M 2.328125 -10.328125 L 1.921875 -5.78125 L 5.734375 -7.28125 Z M 2.328125 -10.328125 "/></g></g></g><g fill="#ffffff" fill-opacity="1"><g transform="translate(218.140618, 268.192984)"><g><path d="M -5.40625 -8.734375 C -5.632812 -8.910156 -5.757812 -9.109375 -5.78125 -9.328125 C -5.8125 -9.546875 -5.773438 -9.757812 -5.671875 -9.96875 C -5.566406 -10.175781 -5.421875 -10.335938 -5.234375 -10.453125 C -5.046875 -10.566406 -4.859375 -10.625 -4.671875 -10.625 C -4.492188 -10.625 -4.3125 -10.5625 -4.125 -10.4375 L 3.3125 -5.953125 L 2.6875 -14.546875 C 2.65625 -15.003906 2.816406 -15.34375 3.171875 -15.5625 C 3.359375 -15.675781 3.570312 -15.726562 3.8125 -15.71875 C 4.050781 -15.71875 4.257812 -15.648438 4.4375 -15.515625 C 4.625 -15.378906 4.726562 -15.144531 4.75 -14.8125 L 5.578125 -4.0625 C 5.585938 -3.625 5.414062 -3.296875 5.0625 -3.078125 C 4.894531 -2.972656 4.707031 -2.914062 4.5 -2.90625 C 4.289062 -2.894531 4.09375 -2.953125 3.90625 -3.078125 Z M -5.40625 -8.734375 "/></g></g></g><g fill="#ffffff" fill-opacity="1"><g transform="translate(232.066034, 259.299005)"><g><path d="M 6.03125 -7.59375 C 6.269531 -7.789062 6.519531 -7.867188 6.78125 -7.828125 C 7.050781 -7.785156 7.265625 -7.675781 7.421875 -7.5 C 7.554688 -7.34375 7.617188 -7.140625 7.609375 -6.890625 C 7.609375 -6.648438 7.476562 -6.421875 7.21875 -6.203125 L 1.71875 -1.46875 C 1.4375 -1.238281 1.144531 -1.128906 0.84375 -1.140625 C 0.539062 -1.160156 0.289062 -1.285156 0.09375 -1.515625 L -6.0625 -8.703125 C -6.25 -8.921875 -6.332031 -9.179688 -6.3125 -9.484375 C -6.289062 -9.796875 -6.140625 -10.066406 -5.859375 -10.296875 L -0.359375 -15.03125 C -0.109375 -15.238281 0.128906 -15.328125 0.359375 -15.296875 C 0.597656 -15.273438 0.789062 -15.175781 0.9375 -15 C 1.082031 -14.832031 1.15625 -14.617188 1.15625 -14.359375 C 1.164062 -14.097656 1.050781 -13.867188 0.8125 -13.671875 L -4.015625 -9.515625 L -1.9375 -7.09375 L 2.640625 -11.03125 C 2.878906 -11.226562 3.125 -11.304688 3.375 -11.265625 C 3.625 -11.234375 3.820312 -11.132812 3.96875 -10.96875 C 4.113281 -10.800781 4.179688 -10.59375 4.171875 -10.34375 C 4.160156 -10.09375 4.035156 -9.867188 3.796875 -9.671875 L -0.78125 -5.734375 L 1.203125 -3.4375 Z M 6.03125 -7.59375 "/></g></g></g><g fill="#ffffff" fill-opacity="1"><g transform="translate(243.794892, 248.847107)"><g><path d="M -2.5625 -13.640625 C -2.789062 -13.828125 -2.890625 -14.0625 -2.859375 -14.34375 C -2.828125 -14.632812 -2.722656 -14.878906 -2.546875 -15.078125 C -2.367188 -15.296875 -2.15625 -15.441406 -1.90625 -15.515625 C -1.65625 -15.585938 -1.40625 -15.523438 -1.15625 -15.328125 L 6.21875 -9.125 C 6.5 -8.882812 6.625 -8.601562 6.59375 -8.28125 C 6.570312 -7.96875 6.460938 -7.695312 6.265625 -7.46875 C 6.128906 -7.3125 5.957031 -7.1875 5.75 -7.09375 C 5.550781 -7.007812 5.351562 -6.96875 5.15625 -6.96875 L -3.9375 -7.3125 L -3.125 -6.71875 L 1.28125 -3.03125 C 1.539062 -2.8125 1.65625 -2.566406 1.625 -2.296875 C 1.601562 -2.023438 1.503906 -1.785156 1.328125 -1.578125 C 1.140625 -1.359375 0.914062 -1.210938 0.65625 -1.140625 C 0.40625 -1.066406 0.148438 -1.140625 -0.109375 -1.359375 L -7.4375 -7.5 C -7.707031 -7.726562 -7.847656 -7.988281 -7.859375 -8.28125 C -7.867188 -8.582031 -7.78125 -8.847656 -7.59375 -9.078125 C -7.4375 -9.253906 -7.269531 -9.375 -7.09375 -9.4375 C -6.914062 -9.5 -6.710938 -9.53125 -6.484375 -9.53125 L 2.921875 -9.140625 L 1.9375 -9.859375 Z M -2.5625 -13.640625 "/></g></g></g><g clip-path="url(#5c63fd0ce1)"><g clip-path="url(#997602a64a)"><g clip-path="url(#2d83b96d58)"><g clip-path="url(#c9d32f67d7)"><path fill="#ffffff" d="M 256.308594 218.214844 C 257.414062 221.171875 256.46875 226.023438 262.214844 227.46875 C 268.070312 228.941406 270.121094 220.835938 271.796875 216.886719 C 272.6875 214.789062 278.203125 207.007812 274.699219 203.355469 C 271.636719 200.164062 268.015625 201.433594 263.375 203.746094 C 259.234375 205.8125 254.429688 204.730469 252.71875 208.546875 C 251.113281 212.121094 255.632812 216.402344 256.308594 218.214844 " fill-opacity="1" fill-rule="nonzero"/></g></g></g></g><g clip-path="url(#eee0b42ca0)"><g clip-path="url(#8a6fd4b4cf)"><g clip-path="url(#f0c3751c18)"><path fill="#ffffff" d="M 245.105469 221.421875 C 248.417969 220.417969 251.578125 221.394531 252.164062 223.601562 C 252.75 225.808594 250.542969 228.410156 247.234375 229.410156 C 243.921875 230.414062 240.761719 229.4375 240.175781 227.230469 C 239.589844 225.023438 241.796875 222.421875 245.105469 221.421875 " fill-opacity="1" fill-rule="nonzero"/></g></g></g><g clip-path="url(#5a5b783269)"><g clip-path="url(#1a42ce70fe)"><g clip-path="url(#fa66e1d5ea)"><path fill="#ffffff" d="M 242.382812 207.84375 C 246.226562 208.402344 249.019531 210.828125 248.621094 213.261719 C 248.222656 215.699219 244.789062 217.21875 240.945312 216.660156 C 237.101562 216.101562 234.308594 213.671875 234.707031 211.238281 C 235.105469 208.804688 238.542969 207.285156 242.382812 207.84375 " fill-opacity="1" fill-rule="nonzero"/></g></g></g><g clip-path="url(#01010b12cd)"><g clip-path="url(#51bc614089)"><g clip-path="url(#5611dcb778)"><path fill="#ffffff" d="M 249.863281 195.457031 C 252.710938 197.984375 253.769531 201.519531 252.230469 203.351562 C 250.6875 205.179688 247.128906 204.617188 244.28125 202.089844 C 241.429688 199.558594 240.371094 196.023438 241.914062 194.191406 C 243.453125 192.359375 247.015625 192.925781 249.863281 195.457031 " fill-opacity="1" fill-rule="nonzero"/></g></g></g><g clip-path="url(#35080c3a8d)"><g clip-path="url(#bd8150a6ea)"><g clip-path="url(#8bd215f605)"><path fill="#ffffff" d="M 264.664062 191.296875 C 266.183594 194.65625 265.667969 198.242188 263.511719 199.308594 C 261.355469 200.375 258.371094 198.515625 256.851562 195.160156 C 255.328125 191.800781 255.84375 188.214844 258 187.148438 C 260.15625 186.082031 263.140625 187.941406 264.664062 191.296875 " fill-opacity="1" fill-rule="nonzero"/></g></g></g></svg>